<mxfile host="app.diagrams.net" modified="2020-09-03T17:10:08.854Z" agent="5.0 (Windows NT 10.0; Win64; x64) AppleWebKit/537.36 (KHTML, like Gecko) Chrome/84.0.4147.135 Safari/537.36" etag="Gj9_LUtWNFj3_clmnA0i" version="13.6.6" type="github">
  <diagram id="DUoueReFs5xLNb-jbVpb" name="Page-1">
    <mxGraphModel dx="868" dy="520" grid="0" gridSize="10" guides="0" tooltips="1" connect="0" arrows="0" fold="1" page="1" pageScale="1" pageWidth="1100" pageHeight="850" background="none" math="0" shadow="0">
      <root>
        <mxCell id="0" />
        <mxCell id="1" parent="0" />
        <mxCell id="YsBThqZEGrDmo693PYyU-8" value="" style="rounded=0;whiteSpace=wrap;html=1;" vertex="1" parent="1">
          <mxGeometry x="383" y="163" width="235" height="670" as="geometry" />
        </mxCell>
        <mxCell id="YsBThqZEGrDmo693PYyU-13" value="&lt;span style=&quot;font-size: 18px&quot;&gt;Testing Agent&lt;/span&gt;" style="shape=umlActor;verticalLabelPosition=bottom;verticalAlign=top;html=1;outlineConnect=0;" vertex="1" parent="1">
          <mxGeometry x="73" y="383" width="41" height="84" as="geometry" />
        </mxCell>
        <mxCell id="YsBThqZEGrDmo693PYyU-14" value="&lt;span style=&quot;font-size: 18px&quot;&gt;Doctor&lt;/span&gt;" style="shape=umlActor;verticalLabelPosition=bottom;verticalAlign=top;html=1;outlineConnect=0;" vertex="1" parent="1">
          <mxGeometry x="73" y="549" width="41" height="84" as="geometry" />
        </mxCell>
        <mxCell id="YsBThqZEGrDmo693PYyU-16" value="&lt;span style=&quot;font-size: 18px&quot;&gt;Admin&lt;/span&gt;" style="shape=umlActor;verticalLabelPosition=bottom;verticalAlign=top;html=1;outlineConnect=0;" vertex="1" parent="1">
          <mxGeometry x="71" y="209" width="41" height="94" as="geometry" />
        </mxCell>
        <mxCell id="YsBThqZEGrDmo693PYyU-17" value="&lt;font style=&quot;font-size: 14px&quot;&gt;Number of Samples Collected&lt;/font&gt;" style="ellipse;whiteSpace=wrap;html=1;" vertex="1" parent="1">
          <mxGeometry x="425" y="188" width="138" height="63" as="geometry" />
        </mxCell>
        <mxCell id="YsBThqZEGrDmo693PYyU-18" value="&lt;font style=&quot;font-size: 14px&quot;&gt;Number of Positive cases per day&amp;nbsp;&lt;/font&gt;&amp;nbsp;" style="ellipse;whiteSpace=wrap;html=1;" vertex="1" parent="1">
          <mxGeometry x="425" y="270" width="141" height="66" as="geometry" />
        </mxCell>
        <mxCell id="YsBThqZEGrDmo693PYyU-19" value="&lt;font style=&quot;font-size: 14px&quot;&gt;Total number of Positive Cases&lt;/font&gt;" style="ellipse;whiteSpace=wrap;html=1;" vertex="1" parent="1">
          <mxGeometry x="414" y="355" width="169" height="69" as="geometry" />
        </mxCell>
        <mxCell id="YsBThqZEGrDmo693PYyU-20" value="&lt;span style=&quot;font-size: 14px&quot;&gt;Patient Treated in Hospital&lt;/span&gt;" style="ellipse;whiteSpace=wrap;html=1;" vertex="1" parent="1">
          <mxGeometry x="415" y="447" width="166" height="65" as="geometry" />
        </mxCell>
        <mxCell id="YsBThqZEGrDmo693PYyU-21" value="&lt;span style=&quot;font-size: 14px&quot;&gt;Patient Treated in Home Isolation&lt;/span&gt;" style="ellipse;whiteSpace=wrap;html=1;" vertex="1" parent="1">
          <mxGeometry x="419" y="528" width="167" height="75" as="geometry" />
        </mxCell>
        <mxCell id="YsBThqZEGrDmo693PYyU-22" value="&lt;span style=&quot;font-size: 18px&quot;&gt;Patient&lt;/span&gt;" style="shape=umlActor;verticalLabelPosition=bottom;verticalAlign=top;html=1;outlineConnect=0;" vertex="1" parent="1">
          <mxGeometry x="74" y="688" width="41" height="84" as="geometry" />
        </mxCell>
        <mxCell id="YsBThqZEGrDmo693PYyU-23" value="&lt;font style=&quot;font-size: 14px&quot;&gt;Total number of Recovered Cases&lt;/font&gt;" style="ellipse;whiteSpace=wrap;html=1;" vertex="1" parent="1">
          <mxGeometry x="420" y="622" width="166" height="69" as="geometry" />
        </mxCell>
        <mxCell id="YsBThqZEGrDmo693PYyU-28" value="" style="endArrow=none;html=1;rounded=1;strokeColor=#111111;" edge="1" parent="1">
          <mxGeometry width="50" height="50" relative="1" as="geometry">
            <mxPoint x="115" y="255" as="sourcePoint" />
            <mxPoint x="377" y="210" as="targetPoint" />
          </mxGeometry>
        </mxCell>
        <mxCell id="YsBThqZEGrDmo693PYyU-30" value="" style="endArrow=none;html=1;rounded=1;strokeColor=#111111;entryX=0.004;entryY=0.182;entryDx=0;entryDy=0;entryPerimeter=0;" edge="1" parent="1" target="YsBThqZEGrDmo693PYyU-8">
          <mxGeometry width="50" height="50" relative="1" as="geometry">
            <mxPoint x="125" y="265" as="sourcePoint" />
            <mxPoint x="387" y="220" as="targetPoint" />
          </mxGeometry>
        </mxCell>
        <mxCell id="YsBThqZEGrDmo693PYyU-31" value="" style="endArrow=none;html=1;rounded=1;strokeColor=#111111;" edge="1" parent="1">
          <mxGeometry width="50" height="50" relative="1" as="geometry">
            <mxPoint x="129" y="270" as="sourcePoint" />
            <mxPoint x="375" y="380" as="targetPoint" />
          </mxGeometry>
        </mxCell>
        <mxCell id="YsBThqZEGrDmo693PYyU-34" value="&lt;font style=&quot;font-size: 14px&quot;&gt;Total Number of Death cases&lt;/font&gt;" style="ellipse;whiteSpace=wrap;html=1;" vertex="1" parent="1">
          <mxGeometry x="426" y="720" width="153" height="80" as="geometry" />
        </mxCell>
        <mxCell id="YsBThqZEGrDmo693PYyU-37" value="" style="endArrow=none;html=1;rounded=1;strokeColor=#111111;" edge="1" parent="1">
          <mxGeometry width="50" height="50" relative="1" as="geometry">
            <mxPoint x="121" y="275" as="sourcePoint" />
            <mxPoint x="377" y="436" as="targetPoint" />
          </mxGeometry>
        </mxCell>
        <mxCell id="YsBThqZEGrDmo693PYyU-38" value="" style="endArrow=none;html=1;rounded=1;strokeColor=#111111;" edge="1" parent="1">
          <mxGeometry width="50" height="50" relative="1" as="geometry">
            <mxPoint x="121" y="287" as="sourcePoint" />
            <mxPoint x="378" y="545" as="targetPoint" />
          </mxGeometry>
        </mxCell>
        <mxCell id="YsBThqZEGrDmo693PYyU-39" value="" style="endArrow=none;html=1;rounded=1;strokeColor=#111111;" edge="1" parent="1">
          <mxGeometry width="50" height="50" relative="1" as="geometry">
            <mxPoint x="118" y="306" as="sourcePoint" />
            <mxPoint x="377" y="629" as="targetPoint" />
          </mxGeometry>
        </mxCell>
        <mxCell id="YsBThqZEGrDmo693PYyU-40" value="" style="endArrow=none;html=1;rounded=1;strokeColor=#111111;entryX=-0.017;entryY=0.826;entryDx=0;entryDy=0;entryPerimeter=0;" edge="1" parent="1" target="YsBThqZEGrDmo693PYyU-8">
          <mxGeometry width="50" height="50" relative="1" as="geometry">
            <mxPoint x="112" y="333" as="sourcePoint" />
            <mxPoint x="467" y="300" as="targetPoint" />
          </mxGeometry>
        </mxCell>
        <mxCell id="YsBThqZEGrDmo693PYyU-41" value="" style="endArrow=none;html=1;rounded=1;strokeColor=#111111;" edge="1" parent="1">
          <mxGeometry width="50" height="50" relative="1" as="geometry">
            <mxPoint x="107" y="338" as="sourcePoint" />
            <mxPoint x="382" y="742" as="targetPoint" />
          </mxGeometry>
        </mxCell>
        <mxCell id="YsBThqZEGrDmo693PYyU-42" value="" style="endArrow=none;html=1;rounded=1;strokeColor=#111111;entryX=0.004;entryY=0.089;entryDx=0;entryDy=0;entryPerimeter=0;" edge="1" parent="1" target="YsBThqZEGrDmo693PYyU-8">
          <mxGeometry width="50" height="50" relative="1" as="geometry">
            <mxPoint x="121" y="422" as="sourcePoint" />
            <mxPoint x="378" y="237" as="targetPoint" />
          </mxGeometry>
        </mxCell>
        <mxCell id="YsBThqZEGrDmo693PYyU-43" value="" style="endArrow=none;html=1;rounded=1;strokeColor=#111111;entryX=-0.017;entryY=0.221;entryDx=0;entryDy=0;entryPerimeter=0;" edge="1" parent="1" target="YsBThqZEGrDmo693PYyU-8">
          <mxGeometry width="50" height="50" relative="1" as="geometry">
            <mxPoint x="115" y="447" as="sourcePoint" />
            <mxPoint x="497" y="330" as="targetPoint" />
          </mxGeometry>
        </mxCell>
        <mxCell id="YsBThqZEGrDmo693PYyU-44" value="" style="endArrow=none;html=1;rounded=1;strokeColor=#111111;" edge="1" parent="1">
          <mxGeometry width="50" height="50" relative="1" as="geometry">
            <mxPoint x="121" y="583" as="sourcePoint" />
            <mxPoint x="382" y="477" as="targetPoint" />
          </mxGeometry>
        </mxCell>
        <mxCell id="YsBThqZEGrDmo693PYyU-45" value="" style="endArrow=none;html=1;rounded=1;strokeColor=#111111;" edge="1" parent="1" target="YsBThqZEGrDmo693PYyU-8">
          <mxGeometry width="50" height="50" relative="1" as="geometry">
            <mxPoint x="131" y="604" as="sourcePoint" />
            <mxPoint x="517" y="350" as="targetPoint" />
          </mxGeometry>
        </mxCell>
        <mxCell id="YsBThqZEGrDmo693PYyU-46" value="" style="endArrow=none;html=1;rounded=1;strokeColor=#111111;" edge="1" parent="1">
          <mxGeometry width="50" height="50" relative="1" as="geometry">
            <mxPoint x="123" y="630" as="sourcePoint" />
            <mxPoint x="380" y="654" as="targetPoint" />
          </mxGeometry>
        </mxCell>
        <mxCell id="YsBThqZEGrDmo693PYyU-47" value="" style="endArrow=none;html=1;rounded=1;strokeColor=#111111;" edge="1" parent="1" target="YsBThqZEGrDmo693PYyU-8">
          <mxGeometry width="50" height="50" relative="1" as="geometry">
            <mxPoint x="120" y="762" as="sourcePoint" />
            <mxPoint x="537" y="370" as="targetPoint" />
          </mxGeometry>
        </mxCell>
        <mxCell id="YsBThqZEGrDmo693PYyU-48" value="" style="endArrow=none;html=1;rounded=1;strokeColor=#111111;" edge="1" parent="1">
          <mxGeometry width="50" height="50" relative="1" as="geometry">
            <mxPoint x="119" y="724" as="sourcePoint" />
            <mxPoint x="380" y="495" as="targetPoint" />
          </mxGeometry>
        </mxCell>
        <mxCell id="YsBThqZEGrDmo693PYyU-49" value="" style="shape=cylinder2;whiteSpace=wrap;html=1;boundedLbl=1;backgroundOutline=1;size=15;" vertex="1" parent="1">
          <mxGeometry x="754" y="444" width="71" height="80" as="geometry" />
        </mxCell>
        <mxCell id="YsBThqZEGrDmo693PYyU-50" value="&lt;font style=&quot;font-size: 18px&quot;&gt;DataBase&lt;/font&gt;" style="text;html=1;align=center;verticalAlign=middle;resizable=0;points=[];autosize=1;" vertex="1" parent="1">
          <mxGeometry x="746" y="531" width="89" height="20" as="geometry" />
        </mxCell>
        <mxCell id="YsBThqZEGrDmo693PYyU-51" value="" style="endArrow=none;html=1;rounded=1;strokeColor=#111111;entryX=0.315;entryY=1.2;entryDx=0;entryDy=0;entryPerimeter=0;" edge="1" parent="1" target="YsBThqZEGrDmo693PYyU-50">
          <mxGeometry width="50" height="50" relative="1" as="geometry">
            <mxPoint x="625" y="764" as="sourcePoint" />
            <mxPoint x="557" y="390" as="targetPoint" />
          </mxGeometry>
        </mxCell>
        <mxCell id="YsBThqZEGrDmo693PYyU-52" value="" style="endArrow=none;html=1;rounded=1;strokeColor=#111111;" edge="1" parent="1">
          <mxGeometry width="50" height="50" relative="1" as="geometry">
            <mxPoint x="620" y="653" as="sourcePoint" />
            <mxPoint x="749" y="526" as="targetPoint" />
          </mxGeometry>
        </mxCell>
        <mxCell id="YsBThqZEGrDmo693PYyU-53" value="" style="endArrow=none;html=1;rounded=1;strokeColor=#111111;" edge="1" parent="1">
          <mxGeometry width="50" height="50" relative="1" as="geometry">
            <mxPoint x="623" y="556" as="sourcePoint" />
            <mxPoint x="751" y="509" as="targetPoint" />
          </mxGeometry>
        </mxCell>
        <mxCell id="YsBThqZEGrDmo693PYyU-54" value="" style="endArrow=none;html=1;rounded=1;strokeColor=#111111;" edge="1" parent="1" source="YsBThqZEGrDmo693PYyU-8">
          <mxGeometry width="50" height="50" relative="1" as="geometry">
            <mxPoint x="595" y="437" as="sourcePoint" />
            <mxPoint x="750" y="474" as="targetPoint" />
          </mxGeometry>
        </mxCell>
        <mxCell id="YsBThqZEGrDmo693PYyU-55" value="" style="endArrow=none;html=1;rounded=1;strokeColor=#111111;exitX=0.996;exitY=0.342;exitDx=0;exitDy=0;exitPerimeter=0;" edge="1" parent="1" source="YsBThqZEGrDmo693PYyU-8">
          <mxGeometry width="50" height="50" relative="1" as="geometry">
            <mxPoint x="631" y="430" as="sourcePoint" />
            <mxPoint x="753" y="449" as="targetPoint" />
          </mxGeometry>
        </mxCell>
        <mxCell id="YsBThqZEGrDmo693PYyU-56" value="" style="endArrow=none;html=1;rounded=1;strokeColor=#111111;exitX=1.009;exitY=0.215;exitDx=0;exitDy=0;exitPerimeter=0;" edge="1" parent="1" source="YsBThqZEGrDmo693PYyU-8">
          <mxGeometry width="50" height="50" relative="1" as="geometry">
            <mxPoint x="639" y="398" as="sourcePoint" />
            <mxPoint x="775" y="440" as="targetPoint" />
          </mxGeometry>
        </mxCell>
        <mxCell id="YsBThqZEGrDmo693PYyU-57" value="" style="endArrow=none;html=1;rounded=1;strokeColor=#111111;entryX=0.817;entryY=0;entryDx=0;entryDy=0;entryPerimeter=0;" edge="1" parent="1" target="YsBThqZEGrDmo693PYyU-49">
          <mxGeometry width="50" height="50" relative="1" as="geometry">
            <mxPoint x="624" y="205" as="sourcePoint" />
            <mxPoint x="803" y="434" as="targetPoint" />
          </mxGeometry>
        </mxCell>
        <mxCell id="YsBThqZEGrDmo693PYyU-58" value="&lt;font style=&quot;font-size: 24px&quot;&gt;B Negative&lt;/font&gt;" style="text;html=1;align=center;verticalAlign=middle;resizable=0;points=[];autosize=1;" vertex="1" parent="1">
          <mxGeometry x="430" y="101" width="127" height="22" as="geometry" />
        </mxCell>
        <mxCell id="YsBThqZEGrDmo693PYyU-60" value="" style="endArrow=none;html=1;strokeColor=#111111;" edge="1" parent="1">
          <mxGeometry width="50" height="50" relative="1" as="geometry">
            <mxPoint x="123" y="649" as="sourcePoint" />
            <mxPoint x="381" y="764" as="targetPoint" />
          </mxGeometry>
        </mxCell>
      </root>
    </mxGraphModel>
  </diagram>
</mxfile>
